# xmcd
#
# Track frame offsets:
#	150
#	21230
#	40532
#	60470
#	78290
#	98485
#	116815
#	137612
#	159810
#	178890
#
# Disc length: 2640 seconds
#
# Revision: 0
# Processed by: cddbd v1.5.2PL0 Copyright (c) Steve Scherf et al.
# Submitted via: EasyCDDAExtractor 12.0.1.1
#
DISCID=700a4e0a
DTITLE=Celines - Alma Morena
DYEAR=2001
DGENRE=Latin
TTITLE0=El Nene
TTITLE1=Ahora Es...
TTITLE2=Me Falta Tu Amor
TTITLE3=Yo Lo Buscare
TTITLE4=No Renunciare
TTITLE5=Alma Morena
TTITLE6=Perdi La Fe
TTITLE7=Que Pasara
TTITLE8=A Quien Vas A Engañar
TTITLE9=Tengo Un Mambo
EXTD=
EXTT0=
EXTT1=
EXTT2=
EXTT3=
EXTT4=
EXTT5=
EXTT6=
EXTT7=
EXTT8=
EXTT9=
PLAYORDER=
